<svg xmlns="http://www.w3.org/2000/svg" width="96" height="96" viewBox="0 0 96 96">
  <defs>
    <linearGradient id="body" x1="16" y1="22" x2="80" y2="82" gradientUnits="userSpaceOnUse">
      <stop offset="0" stop-color="#70757d"/>
      <stop offset="1" stop-color="#8c9199"/>
    </linearGradient>
    <linearGradient id="tab" x1="18" y1="12" x2="64" y2="44" gradientUnits="userSpaceOnUse">
      <stop offset="0" stop-color="#cfcfcf"/>
      <stop offset="1" stop-color="#e4e4e4"/>
    </linearGradient>
    <filter id="shadow" x="0" y="0" width="96" height="96" color-interpolation-filters="sRGB">
      <feDropShadow dx="0" dy="2" stdDeviation="2" flood-color="#000000" flood-opacity="0.28"/>
    </filter>
  </defs>
  <g filter="url(#shadow)">
    <path d="M12 25c0-5.5 4.5-10 10-10h18c3.1 0 4.9 1.1 7.1 3.3l5.6 5.4c1.6 1.5 2.8 2.3 5.2 2.3H74c5.5 0 10 4.5 10 10v7H12Z" fill="url(#tab)"/>
    <path d="M12 36c0-5.5 4.5-10 10-10h52c5.5 0 10 4.5 10 10v35c0 5.5-4.5 10-10 10H22c-5.5 0-10-4.5-10-10Z" fill="url(#body)"/>
    <path d="M12 42h72v-6c0-5.5-4.5-10-10-10H22c-5.5 0-10 4.5-10 10Z" fill="#f0f0f0" opacity="0.55"/>
    <path d="M22 15h18c3.1 0 4.9 1.1 7.1 3.3l5.6 5.4c1.6 1.5 2.8 2.3 5.2 2.3H74c5.5 0 10 4.5 10 10v35c0 5.5-4.5 10-10 10H22c-5.5 0-10-4.5-10-10V25c0-5.5 4.5-10 10-10Z" fill="none" stroke="#ffffff" stroke-opacity="0.55" stroke-width="2"/>
  </g>
</svg>
